# xmcd
#
# Track frame offsets:
#	150
#	1417
#	15782
#	38025
#	57685
#	77375
#	102770
#	125270
#	154737
#	170417
#	187120
#	216952
#	236022
#
# Disc length: 3404 seconds
#
# Revision: 1
# Processed by: cddbd v1.5.2PL0 Copyright (c) Steve Scherf et al.
# Submitted via: audiograbber 1.83.01
#
DISCID=9c0d4a0d
DTITLE=New Orleans Nightbirds - Darkness on the delta
DYEAR=1900
DGENRE=Jazz
TTITLE0=Aus (Trad.)
TTITLE1=Put on your old grey bonnet (Murphy/Weirich)
TTITLE2=Ciribiribin (Pestalozza)
TTITLE3=1919 March (trad.) 
TTITLE4=When I leave the world behind (Berlin)
TTITLE5=Breeze (Sacco/Smith/Lewis)
TTITLE6=Isle of Capri (Grosz/Kennedy)
TTITLE7=Cielito lindo (Fernandez)
TTITLE8=Bogalusa strut (Morgan)
TTITLE9=The curse of an aching heart (Piantadosi/Fink)
TTITLE10=Darkness on the delta (Symes/Levinson/Neiburg) 
TTITLE11=When you and I were young, Maggie (Butterfield)
TTITLE12=Seems like old times (Lombardo/Loeb)
EXTD=
EXTT0=
EXTT1=
EXTT2=
EXTT3=
EXTT4=
EXTT5=
EXTT6=
EXTT7=
EXTT8=
EXTT9=
EXTT10=
EXTT11=
EXTT12=
PLAYORDER=
